<?xml version="1.0" encoding="UTF-8" standalone="no"?>
<svg xmlns="http://www.w3.org/2000/svg" xmlns:xlink="http://www.w3.org/1999/xlink" width="1920" height="1080" viewBox="0 0 1920 1080">
  <!-- Background gradient -->
  <defs>
    <linearGradient id="bg-gradient" x1="0%" y1="0%" x2="100%" y2="100%">
      <stop offset="0%" style="stop-color:#e6f7ff;stop-opacity:1" />
      <stop offset="100%" style="stop-color:#f0f8ff;stop-opacity:1" />
    </linearGradient>
    <filter id="shadow" x="-10%" y="-10%" width="120%" height="120%">
      <feDropShadow dx="0" dy="4" stdDeviation="10" flood-color="#000000" flood-opacity="0.1"/>
    </filter>
  </defs>
  
  <!-- Background -->
  <rect width="1920" height="1080" fill="url(#bg-gradient)"/>
  
  <!-- Modern dental clinic illustration -->
  <g transform="translate(960, 540) scale(1.5)" filter="url(#shadow)">
    <!-- Dental chair -->
    <path d="M-200,100 C-200,50 -150,0 -100,0 L100,0 C150,0 200,50 200,100 L200,150 C200,175 175,200 150,200 L-150,200 C-175,200 -200,175 -200,150 Z" fill="#ffffff" stroke="#57b0f6" stroke-width="2"/>
    <path d="M-150,0 L-150,-100 C-150,-125 -125,-150 -100,-150 L100,-150 C125,-150 150,-125 150,-100 L150,0" fill="#ffffff" stroke="#57b0f6" stroke-width="2"/>
    
    <!-- Dental equipment -->
    <path d="M250,50 C300,50 300,-50 250,-50 L200,-50 L200,50 Z" fill="#f0f8ff" stroke="#57b0f6" stroke-width="2"/>
    <circle cx="250" cy="0" r="15" fill="#ffffff" stroke="#57b0f6" stroke-width="2"/>
    <circle cx="250" cy="0" r="5" fill="#57b0f6"/>
    
    <!-- Dental symbols -->
    <circle cx="-300" cy="-100" r="80" fill="#ffffff" stroke="#57b0f6" stroke-width="3"/>
    <path d="M-330,-100 L-270,-100 M-300,-130 L-300,-70" stroke="#57b0f6" stroke-width="6" stroke-linecap="round"/>
    <path d="M-340,-50 Q-300,-20 -260,-50" fill="none" stroke="#57b0f6" stroke-width="3" stroke-linecap="round"/>
  </g>
  
  <!-- Decorative elements -->
  <circle cx="300" cy="200" r="100" fill="#57b0f6" opacity="0.1"/>
  <circle cx="1600" cy="800" r="150" fill="#6dc993" opacity="0.1"/>
  <path d="M0,900 Q480,800 960,900 Q1440,1000 1920,900" fill="none" stroke="#57b0f6" stroke-width="3" opacity="0.3"/>
</svg>