<?xml version="1.0" encoding="UTF-8" standalone="no"?>
<svg xmlns="http://www.w3.org/2000/svg" xmlns:xlink="http://www.w3.org/1999/xlink" width="1920" height="1080" viewBox="0 0 1920 1080">
  <!-- Background gradient -->
  <defs>
    <linearGradient id="bg-gradient" x1="0%" y1="0%" x2="100%" y2="100%">
      <stop offset="0%" style="stop-color:#f5f9ff;stop-opacity:1" />
      <stop offset="100%" style="stop-color:#e6f7ff;stop-opacity:1" />
    </linearGradient>
    <filter id="shadow" x="-10%" y="-10%" width="120%" height="120%">
      <feDropShadow dx="0" dy="4" stdDeviation="8" flood-color="#000000" flood-opacity="0.1"/>
    </filter>
    <clipPath id="rounded-rect">
      <rect x="0" y="0" width="1200" height="800" rx="20" ry="20"/>
    </clipPath>
  </defs>
  
  <!-- Background -->
  <rect width="1920" height="1080" fill="url(#bg-gradient)"/>
  
  <!-- Modern dental clinic illustration -->
  <g transform="translate(360, 140)" filter="url(#shadow)">
    <g clip-path="url(#rounded-rect)">
      <!-- Clinic interior background -->
      <rect x="0" y="0" width="1200" height="800" fill="#ffffff"/>
      
      <!-- Floor -->
      <rect x="0" y="600" width="1200" height="200" fill="#f0f0f0"/>
      <path d="M0,600 L1200,600" stroke="#e0e0e0" stroke-width="2"/>
      
      <!-- Back wall with windows -->
      <rect x="100" y="100" width="200" height="300" rx="5" fill="#f0f8ff" stroke="#d0d0d0" stroke-width="2"/>
      <rect x="400" y="100" width="200" height="300" rx="5" fill="#f0f8ff" stroke="#d0d0d0" stroke-width="2"/>
      <rect x="700" y="100" width="200" height="300" rx="5" fill="#f0f8ff" stroke="#d0d0d0" stroke-width="2"/>
      <rect x="100" y="100" width="200" height="20" fill="#57b0f6"/>
      <rect x="400" y="100" width="200" height="20" fill="#57b0f6"/>
      <rect x="700" y="100" width="200" height="20" fill="#57b0f6"/>
      
      <!-- Reception desk -->
      <path d="M950,400 L1150,400 L1150,600 L950,600 Z" fill="#f0f8ff" stroke="#57b0f6" stroke-width="2"/>
      <path d="M950,450 L1150,450" stroke="#57b0f6" stroke-width="2"/>
      <path d="M950,500 L1150,500" stroke="#57b0f6" stroke-width="2"/>
      <path d="M950,550 L1150,550" stroke="#57b0f6" stroke-width="2"/>
      
      <!-- Waiting area -->
      <rect x="100" y="450" width="700" height="150" rx="10" fill="#f9f9f9" stroke="#e0e0e0" stroke-width="1"/>
      
      <!-- Chairs -->
      <rect x="150" y="470" width="80" height="80" rx="10" fill="#57b0f6" opacity="0.7"/>
      <rect x="250" y="470" width="80" height="80" rx="10" fill="#57b0f6" opacity="0.7"/>
      <rect x="350" y="470" width="80" height="80" rx="10" fill="#57b0f6" opacity="0.7"/>
      <rect x="450" y="470" width="80" height="80" rx="10" fill="#57b0f6" opacity="0.7"/>
      <rect x="550" y="470" width="80" height="80" rx="10" fill="#57b0f6" opacity="0.7"/>
      <rect x="650" y="470" width="80" height="80" rx="10" fill="#57b0f6" opacity="0.7"/>
      
      <!-- Plants -->
      <path d="M900,450 C900,400 875,350 850,350 C825,350 800,400 800,450 L800,600 L900,600 Z" fill="#6dc993" opacity="0.5"/>
      <path d="M825,350 C825,325 850,300 875,300 C900,300 925,325 925,350" fill="none" stroke="#6dc993" stroke-width="3"/>
      <path d="M850,300 C850,275 875,250 900,250 C925,250 950,275 950,300" fill="none" stroke="#6dc993" stroke-width="2"/>
    </g>
  </g>
  
  <!-- Decorative elements -->
  <circle cx="200" cy="200" r="100" fill="#57b0f6" opacity="0.1"/>
  <circle cx="1700" cy="900" r="150" fill="#6dc993" opacity="0.1"/>
  <path d="M0,1000 Q480,900 960,1000 Q1440,900 1920,1000" fill="none" stroke="#57b0f6" stroke-width="3" opacity="0.2"/>
</svg>