<?xml version="1.0" encoding="UTF-8" standalone="no"?>
<svg xmlns="http://www.w3.org/2000/svg" xmlns:xlink="http://www.w3.org/1999/xlink" width="1920" height="1080" viewBox="0 0 1920 1080">
  <!-- Background gradient -->
  <defs>
    <linearGradient id="bg-gradient" x1="0%" y1="0%" x2="100%" y2="100%">
      <stop offset="0%" style="stop-color:#f0f8ff;stop-opacity:1" />
      <stop offset="100%" style="stop-color:#e6f7ff;stop-opacity:1" />
    </linearGradient>
    <filter id="shadow" x="-10%" y="-10%" width="120%" height="120%">
      <feDropShadow dx="0" dy="4" stdDeviation="8" flood-color="#000000" flood-opacity="0.1"/>
    </filter>
    <clipPath id="tooth-clip">
      <path d="M760,300 Q760,200 860,200 Q960,200 960,300 L960,500 Q960,600 860,600 Q760,600 760,500 Z"/>
    </clipPath>
  </defs>
  
  <!-- Background -->
  <rect width="1920" height="1080" fill="url(#bg-gradient)"/>
  
  <!-- Dental implant illustration -->
  <g filter="url(#shadow)">
    <!-- Gums -->
    <path d="M460,400 Q960,200 1460,400 L1460,700 Q960,900 460,700 Z" fill="#ff9e9e" opacity="0.7"/>
    
    <!-- Teeth background -->
    <path d="M460,400 Q960,300 1460,400 L1460,700 Q960,800 460,700 Z" fill="#ffffff"/>
    
    <!-- Teeth separators -->
    <path d="M660,400 Q660,650 660,700" stroke="#e0e0e0" stroke-width="2"/>
    <path d="M860,350 Q860,700 860,750" stroke="#e0e0e0" stroke-width="2"/>
    <path d="M1060,350 Q1060,700 1060,750" stroke="#e0e0e0" stroke-width="2"/>
    <path d="M1260,400 Q1260,650 1260,700" stroke="#e0e0e0" stroke-width="2"/>
    
    <!-- Tooth with implant -->
    <g clip-path="url(#tooth-clip)">
      <!-- Implant -->
      <path d="M860,600 L860,800" stroke="#a0a0a0" stroke-width="30" stroke-linecap="round"/>
      <path d="M860,600 C800,600 800,550 860,550 C920,550 920,600 860,600 Z" fill="#d0d0d0"/>
      <circle cx="860" cy="550" r="20" fill="#a0a0a0"/>
      
      <!-- Crown -->
      <path d="M760,300 Q760,200 860,200 Q960,200 960,300 L960,500 Q960,600 860,600 Q760,600 760,500 Z" fill="#f0f0f0" stroke="#d0d0d0" stroke-width="2"/>
      <path d="M760,400 Q860,450 960,400" fill="none" stroke="#d0d0d0" stroke-width="2"/>
    </g>
    
    <!-- Extra highlighting -->
    <circle cx="860" cy="550" r="200" fill="#57b0f6" opacity="0.05"/>
    <circle cx="860" cy="550" r="100" fill="#57b0f6" opacity="0.1"/>
    
    <!-- Magnifier element -->
    <circle cx="1200" cy="300" r="80" fill="#ffffff" stroke="#57b0f6" stroke-width="3" opacity="0.8"/>
    <path d="M1260,360 L1320,420" stroke="#57b0f6" stroke-width="4"/>
    <path d="M1330,430 L1350,450" stroke="#57b0f6" stroke-width="6"/>
  </g>
  
  <!-- Decorative elements -->
  <circle cx="300" cy="200" r="100" fill="#57b0f6" opacity="0.1"/>
  <circle cx="1600" cy="800" r="150" fill="#6dc993" opacity="0.1"/>
  <path d="M0,900 Q480,800 960,900 Q1440,1000 1920,900" fill="none" stroke="#57b0f6" stroke-width="3" opacity="0.3"/>
</svg>