<?xml version="1.0" encoding="UTF-8" standalone="no"?>
<svg xmlns="http://www.w3.org/2000/svg" viewBox="0 0 32 32">
  <circle cx="16" cy="16" r="16" fill="#57b0f6"/>
  <path d="M16,7 C13,7 11,9 11,12 C11,13.5 11.5,15 12.5,16 L11,20 C11,21.5 13,23 16,23 C19,23 21,21.5 21,20 L19.5,16 C20.5,15 21,13.5 21,12 C21,9 19,7 16,7 Z" fill="#ffffff"/>
  <path d="M16,9 C14.5,9 13,10 13,12 C13,13 13.5,14 14,14.5 L13,18 C13,18.5 14,20 16,20 C18,20 19,18.5 19,18 L18,14.5 C18.5,14 19,13 19,12 C19,10 17.5,9 16,9 Z" fill="#57b0f6"/>
  <path d="M14,12 L18,12 M16,10 L16,14" stroke="#ffffff" stroke-width="1.5" stroke-linecap="round"/>
</svg>