<?xml version="1.0" encoding="UTF-8"?>
<svg width="1920" height="1080" viewBox="0 0 1920 1080" xmlns="http://www.w3.org/2000/svg">
  <!-- Background with gradient -->
  <defs>
    <linearGradient id="bgGradient" x1="0%" y1="0%" x2="100%" y2="100%">
      <stop offset="0%" stop-color="#f0f8ff" />
      <stop offset="100%" stop-color="#e6f3ff" />
    </linearGradient>
    
    <!-- Shadow filter -->
    <filter id="shadow" x="-20%" y="-20%" width="140%" height="140%">
      <feDropShadow dx="0" dy="10" stdDeviation="15" flood-color="#57b0f6" flood-opacity="0.2"/>
    </filter>
  </defs>
  
  <!-- Background rectangle -->
  <rect width="1920" height="1080" fill="url(#bgGradient)" />
  
  <!-- Main Tooth Group -->
  <g transform="translate(960, 540)">
    <!-- Tooth outer shape -->
    <path d="M-100,0 L-100,-200 C-100,-250 -50,-300 0,-300 C50,-300 100,-250 100,-200 L100,0 
             L100,200 C100,300 50,350 0,350 C-50,350 -100,300 -100,200 Z" 
          fill="#ffffff" 
          stroke="#57b0f6" 
          stroke-width="8"
          filter="url(#shadow)" />
    
    <!-- Root canal anatomy -->
    <g>
      <!-- Left root -->
      <path d="M-60,0 L-60,180 C-60,240 -30,260 -20,260" 
            fill="none" 
            stroke="#57b0f6" 
            stroke-width="3"
            stroke-linecap="round" />
      
      <!-- Center root -->
      <path d="M0,0 L0,220 C0,240 0,270 0,290" 
            fill="none" 
            stroke="#57b0f6" 
            stroke-width="3"
            stroke-linecap="round" />
      
      <!-- Right root -->
      <path d="M60,0 L60,180 C60,240 30,260 20,260" 
            fill="none" 
            stroke="#57b0f6" 
            stroke-width="3"
            stroke-linecap="round" />
      
      <!-- Pulp chamber -->
      <path d="M-60,-50 C-60,-100 -30,-150 0,-150 C30,-150 60,-100 60,-50 L60,0 L-60,0 Z" 
            fill="#f0f8ff" 
            stroke="#57b0f6" 
            stroke-width="3" />
    </g>
    
    <!-- Root canal treatment visualization -->
    <g class="treatment">
      <!-- Files/instruments -->
      <line x1="-30" y1="-150" x2="-30" y2="100" stroke="#57b0f6" stroke-width="2" stroke-dasharray="5,3">
        <animate attributeName="y2" values="50;150;50" dur="5s" repeatCount="indefinite" />
      </line>
      
      <line x1="0" y1="-150" x2="0" y2="130" stroke="#57b0f6" stroke-width="2" stroke-dasharray="5,3">
        <animate attributeName="y2" values="80;180;80" dur="4.5s" repeatCount="indefinite" />
      </line>
      
      <line x1="30" y1="-150" x2="30" y2="120" stroke="#57b0f6" stroke-width="2" stroke-dasharray="5,3">
        <animate attributeName="y2" values="70;170;70" dur="5.5s" repeatCount="indefinite" />
      </line>
      
      <!-- Treatment indicators -->
      <circle cx="-30" cy="150" r="8" fill="#57b0f6" opacity="0.6">
        <animate attributeName="opacity" values="0.2;0.8;0.2" dur="3s" repeatCount="indefinite" />
      </circle>
      
      <circle cx="0" cy="180" r="8" fill="#57b0f6" opacity="0.6">
        <animate attributeName="opacity" values="0.3;0.9;0.3" dur="3.5s" repeatCount="indefinite" />
      </circle>
      
      <circle cx="30" cy="170" r="8" fill="#57b0f6" opacity="0.6">
        <animate attributeName="opacity" values="0.4;1;0.4" dur="4s" repeatCount="indefinite" />
      </circle>
    </g>
    
    <!-- Crown section -->
    <path d="M-100,-200 C-100,-250 -50,-300 0,-300 C50,-300 100,-250 100,-200 L100,-180 L-100,-180 Z" 
          fill="#f7f7f7" 
          stroke="#57b0f6" 
          stroke-width="3" />
    
    <!-- Cross-section lines -->
    <line x1="-100" y1="0" x2="100" y2="0" stroke="#57b0f6" stroke-width="3" opacity="0.7" />
    <line x1="-60" y1="-100" x2="60" y2="-100" stroke="#57b0f6" stroke-width="2" opacity="0.5" stroke-dasharray="8,4" />
  </g>
  
  <!-- Dental instruments -->
  <g transform="translate(1450, 400)">
    <!-- Root canal file -->
    <line x1="0" y1="0" x2="-80" y2="80" stroke="#cccccc" stroke-width="6" />
    <path d="M-80,80 L-180,180 L-185,175 L-85,75 Z" fill="#57b0f6" />
    <circle cx="0" cy="0" r="20" fill="#cccccc" stroke="#999999" stroke-width="2" />
  </g>
  
  <!-- Treatment title -->
  <text x="960" y="900" font-family="Arial, sans-serif" font-size="48" text-anchor="middle" fill="#57b0f6" font-weight="bold">
    Root Canal Treatment
  </text>
  
  <!-- Treatment subtitle -->
  <text x="960" y="960" font-family="Arial, sans-serif" font-size="30" text-anchor="middle" fill="#666666">
    Painless Procedure to Save Your Tooth
  </text>
</svg>