<?xml version="1.0" encoding="UTF-8"?>
<svg width="1920" height="1080" viewBox="0 0 1920 1080" xmlns="http://www.w3.org/2000/svg">
  <!-- Background with gradient -->
  <defs>
    <linearGradient id="bgGradient" x1="0%" y1="0%" x2="100%" y2="100%">
      <stop offset="0%" stop-color="#f0f8ff" />
      <stop offset="100%" stop-color="#e6f3ff" />
    </linearGradient>
    
    <!-- Shadow filter -->
    <filter id="shadow" x="-10%" y="-10%" width="120%" height="120%">
      <feDropShadow dx="0" dy="5" stdDeviation="10" flood-color="#57b0f6" flood-opacity="0.2"/>
    </filter>
    
    <!-- Filling pattern -->
    <pattern id="natural-pattern" x="0" y="0" width="30" height="30" patternUnits="userSpaceOnUse">
      <path d="M0,15 L30,15 M15,0 L15,30" stroke="#ffffff" stroke-width="8" stroke-linecap="round" opacity="0.2"/>
    </pattern>
  </defs>
  
  <!-- Background rectangle -->
  <rect width="1920" height="1080" fill="url(#bgGradient)" />
  
  <!-- Main Tooth Group -->
  <g transform="translate(960, 540)" filter="url(#shadow)">
    <!-- Cutaway showing tooth -->
    <g class="tooth-structure">
      <!-- Tooth outline -->
      <path d="M-200,0 C-200,-100 -100,-200 0,-200 C100,-200 200,-100 200,0 C200,100 150,200 0,200 C-150,200 -200,100 -200,0 Z" 
            fill="#ffffff" 
            stroke="#57b0f6" 
            stroke-width="5" />
      
      <!-- Cavity/filling area -->
      <path d="M-50,-50 Q0,-80 50,-50 Q80,-20 50,30 Q0,60 -50,30 Q-80,-20 -50,-50 Z" 
            fill="#f7f7f7" 
            stroke="#57b0f6" 
            stroke-width="3" />
      
      <!-- Natural filling material -->
      <path d="M-45,-45 Q0,-75 45,-45 Q75,-15 45,28 Q0,55 -45,28 Q-75,-15 -45,-45 Z" 
            fill="url(#natural-pattern)" 
            stroke="#e0e0e0" 
            stroke-width="1" />
      
      <!-- Dentin layer -->
      <path d="M-180,0 C-180,-90 -90,-180 0,-180 C90,-180 180,-90 180,0 C180,90 130,180 0,180 C-130,180 -180,90 -180,0 Z" 
            fill="#fffaf0" 
            stroke="none" />
      
      <!-- Pulp chamber -->
      <path d="M-60,0 C-60,-40 -30,-60 0,-60 C30,-60 60,-40 60,0 C60,40 30,70 0,70 C-30,70 -60,40 -60,0 Z" 
            fill="#fff0f5" 
            stroke="#ffcccb" 
            stroke-width="1" />
    </g>
    
    <!-- Before and after comparison line -->
    <line x1="-250" y1="0" x2="250" y2="0" stroke="#57b0f6" stroke-width="3" stroke-dasharray="10,5" opacity="0.5" />
    
    <!-- Labels -->
    <g class="labels" font-family="Arial, sans-serif" fill="#57b0f6" font-weight="bold">
      <text x="-210" y="-20" font-size="24">Before</text>
      <text x="-210" y="20" font-size="24">After</text>
      
      <!-- Fillings label and arrow -->
      <text x="100" y="-100" font-size="28" text-anchor="middle">Tooth-Colored Filling</text>
      <path d="M100,-80 L20,-20" fill="none" stroke="#57b0f6" stroke-width="2" stroke-dasharray="4,4" marker-end="url(#arrowhead)" />
    </g>
    
    <!-- Dental instruments -->
    <g class="instruments" transform="translate(-350, -150)">
      <!-- Dental explorer -->
      <path d="M0,0 L80,40 L100,100" fill="none" stroke="#cccccc" stroke-width="5" stroke-linecap="round" />
      <path d="M100,100 L120,120 L110,140" fill="none" stroke="#cccccc" stroke-width="4" stroke-linecap="round" />
      
      <!-- Handle -->
      <rect x="-20" y="-10" width="40" height="20" rx="5" fill="#57b0f6" opacity="0.7" />
    </g>
  </g>
  
  <!-- Comparison view of amalgam vs. composite fillings -->
  <g transform="translate(500, 800)">
    <!-- Amalgam (silver) filling representation -->
    <circle cx="0" cy="0" r="80" fill="#777777" stroke="#666666" stroke-width="3" />
    <text x="0" y="120" font-family="Arial, sans-serif" font-size="24" text-anchor="middle" fill="#666666">Silver Amalgam</text>
  </g>
  
  <g transform="translate(1400, 800)">
    <!-- Composite (tooth-colored) filling representation -->
    <circle cx="0" cy="0" r="80" fill="#f5f5f5" stroke="#e0e0e0" stroke-width="3" />
    <text x="0" y="120" font-family="Arial, sans-serif" font-size="24" text-anchor="middle" fill="#57b0f6">Tooth-Colored Composite</text>
  </g>
  
  <!-- Title -->
  <text x="960" y="150" font-family="Arial, sans-serif" font-size="60" text-anchor="middle" fill="#57b0f6" font-weight="bold">
    Tooth-Colored Fillings
  </text>
  
  <!-- Subtitle -->
  <text x="960" y="220" font-family="Arial, sans-serif" font-size="36" text-anchor="middle" fill="#666666">
    Natural-Looking Dental Restorations
  </text>
  
  <!-- Animation effects -->
  <g>
    <circle cx="960" cy="540" r="400" fill="none" stroke="#57b0f6" stroke-width="2" opacity="0.1">
      <animate attributeName="r" values="400;420;400" dur="5s" repeatCount="indefinite" />
      <animate attributeName="opacity" values="0.1;0.2;0.1" dur="5s" repeatCount="indefinite" />
    </circle>
    <circle cx="960" cy="540" r="450" fill="none" stroke="#57b0f6" stroke-width="2" opacity="0.05">
      <animate attributeName="r" values="450;480;450" dur="7s" repeatCount="indefinite" />
      <animate attributeName="opacity" values="0.05;0.1;0.05" dur="7s" repeatCount="indefinite" />
    </circle>
  </g>
</svg>